<?xml version="1.0" encoding="utf-8"?>
<!-- Generator: Adobe Illustrator 15.0.0, SVG Export Plug-In . SVG Version: 6.00 Build 0)  -->
<!DOCTYPE svg PUBLIC "-//W3C//DTD SVG 1.1//EN" "http://www.w3.org/Graphics/SVG/1.1/DTD/svg11.dtd">
<svg version="1.1" xmlns="http://www.w3.org/2000/svg" xmlns:xlink="http://www.w3.org/1999/xlink" x="0px" y="0px" width="512px"
	 height="512px" viewBox="0 0 512 512" enable-background="new 0 0 512 512" xml:space="preserve">
<g id="Layer_2" display="none">
	<rect display="inline" fill="#FFFFFF" width="512" height="512"/>
</g>
<g id="Layer_4">
	<g>
		<circle fill="none" stroke="#3E4B52" stroke-width="20" stroke-miterlimit="10" cx="257" cy="257.001" r="243.779"/>
	</g>
	<path fill-rule="evenodd" clip-rule="evenodd" fill="#333333" stroke="#3E4B52" stroke-width="2" stroke-miterlimit="10" d="
		M217.413,395.816c-18.249-1.872-36.295-5.978-45.156-17.476c-1.552-2.011-1.557-5.052-4.911-5.848
		c-0.281,9.535,5.7,17.103,11.192,22.711c2.862,2.922,6.232,5.39,9.794,7.549c3.65,2.213,3.522,3.436-0.238,2.146
		c-11.49-3.94-22.295-8.646-30.923-15.784c-6.79,11.223-16.792,20.305-26.892,28.933c-2.26,1.931-2.234,0.036-0.301-2.7
		c4.615-6.534,16.65-18.293,19.42-28.48c1.333-4.905-1.35-13.572-4.97-13.876c-3.713-0.311-6.124,4.512-7.65,6.922
		c-2.233,3.534-3.563,6.391-5.215,9.466c-4.247-9.013-0.656-19.973,4.354-25.096c-8.377-8.877-16.54-17.994-25.594-26.116
		c-3.675-3.297-2.388-5.708,2.062-3.648c13.35,6.178,25.595,14.006,33.575,24.621c-4.181-14.414-9.074-29.473-14.63-42.141
		c-1.239-2.825,0.204-3.464,2.141-1.069c8.958,11.072,16.86,23.325,23.611,36.863c-1.371-19.578-0.808-38.234,6.441-49.686
		c0.503-0.795,1.016-2.989,2.543-2.437c2.34,7.075,4.003,13.347,6.894,21.036c1.174,3.113,6.501,17.938,10.521,17.394
		c2.682-0.363,3.234-6.896,3.542-12.05c1.292-21.637-1.865-46.526-3.271-66.358c3.223-3.4,7.554-7.693,10.872-10.924
		c1.121-1.093,2.416-2.996,3.686-2.497c-0.293,4.922,0.401,10.102,0.459,15.271c0.146,13.301,0.401,27.971,5.446,36.411
		c4.182-3.43,5.451-9.583,6.827-14.907c4.474-17.309,7.155-36.905,9.961-55.232c7.563-6.841,16.315-14.794,23.669-21.571
		c0.913-0.843,1.648-2.495,2.943-2.074c1.965,8.869,1.584,20.355,7.485,24.826c4.872-5.079,6.045-12.459,7.318-19.905
		c0.594-3.471,1.092-7.657,1.657-11.563c0.561-3.878,0.32-8.938,1.637-11.945c1.631-3.725,10.053-9.069,14.218-12.637
		c33.834-28.975,69.991-58.813,111.15-78.778c9.069,7.596,15.086,21.59,14.722,38.195c-0.31,14.159-6.221,26.943-12.472,37.397
		c-6.333,10.591-14.131,20.174-21.702,29.494c-10.541,12.972-23.077,28.465-34.376,42.427c-3.13,3.87-9.142,12.654-12.249,13.678
		c-2.219,0.73-4.865-0.009-7.266,0.016c-11.091,0.124-22.433,1.664-25.885,9.075c5.112,5.486,16.808,3.625,26.6,3.89
		c-13.073,19.393-27.821,38.588-42.304,58.159c-1.848,2.496-4.439,7.717-6.422,8.385c-3.925,1.324-12.067-0.599-18.384-0.518
		c-25.651,0.332-54.843,3.104-64.736,18.862c32.206,2.486,64.582,4.782,99.29,4.476c-27.511,15.319-74.95,9.666-106.009,5.455
		c6.504,16.759,20.69,24.938,37.856,29.79C220.921,394.844,220.94,396.179,217.413,395.816z M355.258,152.969
		c-49.075,54.875-97.649,110.201-140.509,170.643c24.861-26.3,51.522-52.258,75.103-80.616
		C313.541,214.504,333.837,183.229,355.258,152.969z"/>
	<g>
		<circle fill="none" stroke="#FFFFFF" stroke-width="18" stroke-miterlimit="10" cx="257" cy="257.001" r="243.779"/>
		<path fill-rule="evenodd" clip-rule="evenodd" fill="#FFFFFF" d="M217.413,395.816c-18.249-1.872-36.295-5.978-45.156-17.476
			c-1.552-2.011-1.557-5.052-4.911-5.848c-0.281,9.535,5.7,17.103,11.192,22.711c2.862,2.922,6.232,5.39,9.794,7.549
			c3.65,2.213,3.522,3.436-0.238,2.146c-11.49-3.94-22.295-8.646-30.923-15.784c-6.79,11.223-16.792,20.305-26.892,28.933
			c-2.26,1.931-2.234,0.036-0.301-2.7c4.615-6.534,16.65-18.293,19.42-28.48c1.333-4.905-1.35-13.572-4.97-13.876
			c-3.713-0.311-6.124,4.512-7.65,6.922c-2.233,3.534-3.563,6.391-5.215,9.466c-4.247-9.013-0.656-19.973,4.354-25.096
			c-8.377-8.877-16.54-17.994-25.594-26.116c-3.675-3.297-2.388-5.708,2.062-3.648c13.35,6.178,25.595,14.006,33.575,24.621
			c-4.181-14.414-9.074-29.473-14.63-42.141c-1.239-2.825,0.204-3.464,2.141-1.069c8.958,11.072,16.86,23.325,23.611,36.863
			c-1.371-19.578-0.808-38.234,6.441-49.686c0.503-0.795,1.016-2.989,2.543-2.437c2.34,7.075,4.003,13.347,6.894,21.036
			c1.174,3.113,6.501,17.938,10.521,17.394c2.682-0.363,3.234-6.896,3.542-12.05c1.292-21.637-1.865-46.526-3.271-66.358
			c3.223-3.4,7.554-7.693,10.872-10.924c1.121-1.093,2.416-2.996,3.686-2.497c-0.293,4.922,0.401,10.102,0.459,15.271
			c0.146,13.301,0.401,27.971,5.446,36.411c4.182-3.43,5.451-9.583,6.827-14.907c4.474-17.309,7.155-36.905,9.961-55.232
			c7.563-6.841,16.315-14.794,23.669-21.571c0.913-0.843,1.648-2.495,2.943-2.074c1.965,8.869,1.584,20.355,7.485,24.826
			c4.872-5.079,6.045-12.459,7.318-19.905c0.594-3.471,1.092-7.657,1.657-11.563c0.561-3.878,0.32-8.938,1.637-11.945
			c1.631-3.725,10.053-9.069,14.218-12.637c33.834-28.975,69.991-58.813,111.15-78.778c9.069,7.596,15.086,21.59,14.722,38.195
			c-0.31,14.159-6.221,26.943-12.472,37.397c-6.333,10.591-14.131,20.174-21.702,29.494c-10.541,12.972-23.077,28.465-34.376,42.427
			c-3.13,3.87-9.142,12.654-12.249,13.678c-2.219,0.73-4.865-0.009-7.266,0.016c-11.091,0.124-22.433,1.664-25.885,9.075
			c5.112,5.486,16.808,3.625,26.6,3.89c-13.073,19.393-27.821,38.588-42.304,58.159c-1.848,2.496-4.439,7.717-6.422,8.385
			c-3.925,1.324-12.067-0.599-18.384-0.518c-25.651,0.332-54.843,3.104-64.736,18.862c32.206,2.486,64.582,4.782,99.29,4.476
			c-27.511,15.319-74.95,9.666-106.009,5.455c6.504,16.759,20.69,24.938,37.856,29.79
			C220.921,394.844,220.94,396.179,217.413,395.816z M355.258,152.969c-49.075,54.875-97.649,110.201-140.509,170.643
			c24.861-26.3,51.522-52.258,75.103-80.616C313.541,214.504,333.837,183.229,355.258,152.969z"/>
	</g>
</g>
</svg>
